<svg xmlns="http://www.w3.org/2000/svg" viewBox="3318.377 933.499 19.579 20.802">
  <defs>
    <style>
      .cls-1 {
        fill: #6358ff;
        stroke: #6358ff;
        stroke-width: 0.3px;
      }
    </style>
  </defs>
  <path id="그룹_나가기_버튼" data-name="그룹 나가기 버튼" class="cls-1" d="M19.246,10.251v-.114c0-.023,0-.046-.023-.046,0-.023,0-.023-.023-.046,0-.023-.023-.046-.046-.068a.022.022,0,0,0-.023-.023c-.023-.023-.046-.068-.068-.091L15.228,6a.552.552,0,0,0-.8,0,.572.572,0,0,0,0,.8L17.305,9.68H7.214a.571.571,0,1,0,0,1.142H17.283L14.406,13.7a.573.573,0,0,0,.822.8l3.858-3.858h0l.068-.068c0-.023.023-.023.023-.046s.023-.023.023-.046.023-.046.023-.068,0-.023.023-.046c-.023-.046,0-.068,0-.114Zm-7.968,2.484a.565.565,0,0,0-.571.571v2.059a4.014,4.014,0,0,1-4,4H5.137a4.014,4.014,0,0,1-4-4V5.137a4.014,4.014,0,0,1,4-4H6.712a4.014,4.014,0,0,1,4,4V7.013a.571.571,0,0,0,1.142,0V5.137A5.145,5.145,0,0,0,6.712,0H5.137A5.145,5.145,0,0,0,0,5.137V15.365A5.145,5.145,0,0,0,5.137,20.5H6.712a5.145,5.145,0,0,0,5.137-5.137V13.306A.565.565,0,0,0,11.278,12.735Z" transform="translate(3318.527 933.649)"/>
</svg>
