<svg xmlns="http://www.w3.org/2000/svg" viewBox="1386.501 227.718 16.845 19.278">
  <defs>
    <style>
      .cls-1 {
        fill: #868686;
      }
    </style>
  </defs>
  <g id="패스워드_픽토그램" data-name="패스워드 픽토그램" transform="translate(1239.501 -57.282)">
    <g id="그룹_9" data-name="그룹 9" transform="translate(147 285)">
      <path id="패스_7" data-name="패스 7" class="cls-1" d="M14.936,7.058H13.028V4.6a4.6,4.6,0,0,0-9.192,0V7.058H1.929A1.926,1.926,0,0,0,0,8.986V17.35a1.926,1.926,0,0,0,1.929,1.929H14.916a1.926,1.926,0,0,0,1.929-1.929V8.986A1.9,1.9,0,0,0,14.936,7.058ZM5.56,4.6a2.872,2.872,0,0,1,5.745,0V7.058H5.56V4.6ZM15.141,17.35a.206.206,0,0,1-.205.205H1.929a.206.206,0,0,1-.205-.205V8.986a.206.206,0,0,1,.205-.205H14.916a.206.206,0,0,1,.205.205l.021,8.363Z"/>
      <path id="패스_8" data-name="패스 8" class="cls-1" d="M34.264,55.5A1.764,1.764,0,0,0,32.5,57.264a1.784,1.784,0,0,0,.862,1.518v1.764h1.826V58.783a1.758,1.758,0,0,0,.862-1.518A1.782,1.782,0,0,0,34.264,55.5Z" transform="translate(-25.832 -44.962)"/>
    </g>
  </g>
</svg>
