<svg xmlns="http://www.w3.org/2000/svg" viewBox="3208.801 934 16.999 20.151">
  <defs>
    <style>
      .cls-1 {
        fill: #6358ff;
      }
    </style>
  </defs>
  <g id="공유_링크_버튼" data-name="공유 링크 버튼" transform="translate(3208.801 934)">
    <path id="패스_37" data-name="패스 37" class="cls-1" d="M13.73,6.538a3.291,3.291,0,1,0-2.849-1.681L5.511,7.869a3.22,3.22,0,0,0-2.242-.887,3.269,3.269,0,1,0,0,6.538,3.327,3.327,0,0,0,2.242-.887l5.23,2.9a3.272,3.272,0,1,0,.841-1.121L6.3,11.465a3.274,3.274,0,0,0,0-2.428l5.534-3.082A3.245,3.245,0,0,0,13.73,6.538Zm0-5.137a1.868,1.868,0,1,1-1.868,1.868A1.873,1.873,0,0,1,13.73,1.4ZM3.269,12.1a1.868,1.868,0,1,1,1.868-1.868A1.873,1.873,0,0,1,3.269,12.1Zm10.461,2.9a1.868,1.868,0,1,1-1.868,1.868A1.873,1.873,0,0,1,13.73,14.991Z" transform="translate(0)"/>
  </g>
</svg>
